<mxfile host="app.diagrams.net" modified="2022-11-30T09:44:41.230Z" agent="5.0 (Macintosh; Intel Mac OS X 10_15_5) AppleWebKit/537.36 (KHTML, like Gecko) Chrome/107.0.0.0 Safari/537.36" version="20.6.0" etag="3OEAMPd8fAgG5qUJ7mnU" type="github">
  <diagram id="ZjGpU4D9dsk0vhYfb42c" name="第 1 页">
    <mxGraphModel dx="2843" dy="1186" grid="1" gridSize="10" guides="1" tooltips="1" connect="1" arrows="1" fold="1" page="1" pageScale="1" pageWidth="827" pageHeight="1169" math="0" shadow="0">
      <root>
        <mxCell id="0" />
        <mxCell id="1" parent="0" />
        <mxCell id="iVxKkr2CtesMYXWZ3AcV-1" value="dubbo-cluster" style="rounded=1;whiteSpace=wrap;html=1;" vertex="1" parent="1">
          <mxGeometry x="1291" y="846" width="180" height="80" as="geometry" />
        </mxCell>
        <mxCell id="iVxKkr2CtesMYXWZ3AcV-4" value="dubbo-config-api" style="rounded=1;whiteSpace=wrap;html=1;fillColor=#dae8fc;strokeColor=#6c8ebf;gradientColor=#00CC66;" vertex="1" parent="1">
          <mxGeometry x="381" y="846" width="180" height="80" as="geometry" />
        </mxCell>
        <mxCell id="iVxKkr2CtesMYXWZ3AcV-5" value="dubbo-configcenter" style="rounded=1;whiteSpace=wrap;html=1;" vertex="1" parent="1">
          <mxGeometry x="80" y="1007" width="160" height="50.5" as="geometry" />
        </mxCell>
        <mxCell id="iVxKkr2CtesMYXWZ3AcV-6" value="dubbo-metadata-api" style="rounded=1;whiteSpace=wrap;html=1;" vertex="1" parent="1">
          <mxGeometry x="150" y="595" width="180" height="80" as="geometry" />
        </mxCell>
        <mxCell id="iVxKkr2CtesMYXWZ3AcV-9" value="dubbo-rpc-协议" style="rounded=1;whiteSpace=wrap;html=1;" vertex="1" parent="1">
          <mxGeometry x="1830" y="846" width="180" height="80" as="geometry" />
        </mxCell>
        <mxCell id="iVxKkr2CtesMYXWZ3AcV-10" value="dubbo-rpc-api" style="rounded=1;whiteSpace=wrap;html=1;" vertex="1" parent="1">
          <mxGeometry x="778" y="846" width="180" height="80" as="geometry" />
        </mxCell>
        <mxCell id="iVxKkr2CtesMYXWZ3AcV-15" value="ReferenceConfig" style="rounded=1;whiteSpace=wrap;html=1;dashed=1;gradientColor=#9AC7BF;" vertex="1" parent="1">
          <mxGeometry x="416" y="735" width="110" height="30" as="geometry" />
        </mxCell>
        <mxCell id="iVxKkr2CtesMYXWZ3AcV-19" value="" style="endArrow=classic;html=1;rounded=0;exitX=1;exitY=0.5;exitDx=0;exitDy=0;entryX=0;entryY=0.5;entryDx=0;entryDy=0;" edge="1" parent="1" target="iVxKkr2CtesMYXWZ3AcV-10">
          <mxGeometry width="50" height="50" relative="1" as="geometry">
            <mxPoint x="561" y="886" as="sourcePoint" />
            <mxPoint x="671" y="886" as="targetPoint" />
          </mxGeometry>
        </mxCell>
        <mxCell id="iVxKkr2CtesMYXWZ3AcV-93" value="启动&amp;amp;初始化-export/refer" style="edgeLabel;html=1;align=center;verticalAlign=middle;resizable=0;points=[];" vertex="1" connectable="0" parent="iVxKkr2CtesMYXWZ3AcV-19">
          <mxGeometry x="0.0323" relative="1" as="geometry">
            <mxPoint as="offset" />
          </mxGeometry>
        </mxCell>
        <mxCell id="iVxKkr2CtesMYXWZ3AcV-20" value="ServiceConfig" style="rounded=1;whiteSpace=wrap;html=1;dashed=1;gradientColor=#9AC7BF;" vertex="1" parent="1">
          <mxGeometry x="416" y="1005" width="110" height="30" as="geometry" />
        </mxCell>
        <mxCell id="iVxKkr2CtesMYXWZ3AcV-21" value="Protocol" style="rounded=1;whiteSpace=wrap;html=1;dashed=1;fillColor=#e1d5e7;strokeColor=#9673a6;" vertex="1" parent="1">
          <mxGeometry x="789.5" y="733.5" width="220.5" height="36.5" as="geometry" />
        </mxCell>
        <mxCell id="iVxKkr2CtesMYXWZ3AcV-22" value="Proxy" style="rounded=1;whiteSpace=wrap;html=1;dashed=1;gradientColor=#9AC7BF;" vertex="1" parent="1">
          <mxGeometry x="813" y="1005" width="110" height="30" as="geometry" />
        </mxCell>
        <mxCell id="iVxKkr2CtesMYXWZ3AcV-23" value="" style="endArrow=classic;html=1;rounded=0;exitX=1;exitY=0.5;exitDx=0;exitDy=0;entryX=0;entryY=0.5;entryDx=0;entryDy=0;" edge="1" parent="1" target="iVxKkr2CtesMYXWZ3AcV-1">
          <mxGeometry width="50" height="50" relative="1" as="geometry">
            <mxPoint x="958" y="885.5" as="sourcePoint" />
            <mxPoint x="1068" y="885.5" as="targetPoint" />
          </mxGeometry>
        </mxCell>
        <mxCell id="iVxKkr2CtesMYXWZ3AcV-94" value="invoke" style="edgeLabel;html=1;align=center;verticalAlign=middle;resizable=0;points=[];" vertex="1" connectable="0" parent="iVxKkr2CtesMYXWZ3AcV-23">
          <mxGeometry x="-0.015" y="4" relative="1" as="geometry">
            <mxPoint as="offset" />
          </mxGeometry>
        </mxCell>
        <mxCell id="iVxKkr2CtesMYXWZ3AcV-25" value="" style="endArrow=classic;html=1;rounded=0;entryX=0.5;entryY=1;entryDx=0;entryDy=0;exitX=0.5;exitY=0;exitDx=0;exitDy=0;" edge="1" parent="1" source="iVxKkr2CtesMYXWZ3AcV-4" target="iVxKkr2CtesMYXWZ3AcV-15">
          <mxGeometry width="50" height="50" relative="1" as="geometry">
            <mxPoint x="461" y="855" as="sourcePoint" />
            <mxPoint x="511" y="805" as="targetPoint" />
          </mxGeometry>
        </mxCell>
        <mxCell id="iVxKkr2CtesMYXWZ3AcV-26" value="include" style="edgeLabel;html=1;align=center;verticalAlign=middle;resizable=0;points=[];" vertex="1" connectable="0" parent="iVxKkr2CtesMYXWZ3AcV-25">
          <mxGeometry x="0.1111" relative="1" as="geometry">
            <mxPoint as="offset" />
          </mxGeometry>
        </mxCell>
        <mxCell id="iVxKkr2CtesMYXWZ3AcV-27" value="" style="endArrow=classic;html=1;rounded=0;exitX=0.5;exitY=1;exitDx=0;exitDy=0;entryX=0.5;entryY=0;entryDx=0;entryDy=0;" edge="1" parent="1" source="iVxKkr2CtesMYXWZ3AcV-4" target="iVxKkr2CtesMYXWZ3AcV-20">
          <mxGeometry width="50" height="50" relative="1" as="geometry">
            <mxPoint x="431" y="1055" as="sourcePoint" />
            <mxPoint x="481" y="1005" as="targetPoint" />
          </mxGeometry>
        </mxCell>
        <mxCell id="iVxKkr2CtesMYXWZ3AcV-28" value="include" style="edgeLabel;html=1;align=center;verticalAlign=middle;resizable=0;points=[];" vertex="1" connectable="0" parent="iVxKkr2CtesMYXWZ3AcV-27">
          <mxGeometry x="-0.1139" y="-1" relative="1" as="geometry">
            <mxPoint as="offset" />
          </mxGeometry>
        </mxCell>
        <mxCell id="iVxKkr2CtesMYXWZ3AcV-29" value="DubboBootstrap" style="rounded=1;whiteSpace=wrap;html=1;dashed=1;gradientColor=#9AC7BF;" vertex="1" parent="1">
          <mxGeometry x="171" y="871" width="110" height="30" as="geometry" />
        </mxCell>
        <mxCell id="iVxKkr2CtesMYXWZ3AcV-30" value="" style="endArrow=classic;html=1;rounded=0;entryX=1;entryY=0.5;entryDx=0;entryDy=0;exitX=0;exitY=0.5;exitDx=0;exitDy=0;" edge="1" parent="1" source="iVxKkr2CtesMYXWZ3AcV-4" target="iVxKkr2CtesMYXWZ3AcV-29">
          <mxGeometry width="50" height="50" relative="1" as="geometry">
            <mxPoint x="481" y="856" as="sourcePoint" />
            <mxPoint x="481" y="775" as="targetPoint" />
          </mxGeometry>
        </mxCell>
        <mxCell id="iVxKkr2CtesMYXWZ3AcV-31" value="include" style="edgeLabel;html=1;align=center;verticalAlign=middle;resizable=0;points=[];" vertex="1" connectable="0" parent="iVxKkr2CtesMYXWZ3AcV-30">
          <mxGeometry x="0.1111" relative="1" as="geometry">
            <mxPoint as="offset" />
          </mxGeometry>
        </mxCell>
        <mxCell id="iVxKkr2CtesMYXWZ3AcV-32" value="" style="endArrow=classic;html=1;rounded=0;entryX=0.5;entryY=1;entryDx=0;entryDy=0;exitX=0.5;exitY=0;exitDx=0;exitDy=0;" edge="1" parent="1">
          <mxGeometry width="50" height="50" relative="1" as="geometry">
            <mxPoint x="867.5" y="846" as="sourcePoint" />
            <mxPoint x="867.5" y="765" as="targetPoint" />
          </mxGeometry>
        </mxCell>
        <mxCell id="iVxKkr2CtesMYXWZ3AcV-33" value="include" style="edgeLabel;html=1;align=center;verticalAlign=middle;resizable=0;points=[];" vertex="1" connectable="0" parent="iVxKkr2CtesMYXWZ3AcV-32">
          <mxGeometry x="0.1111" relative="1" as="geometry">
            <mxPoint as="offset" />
          </mxGeometry>
        </mxCell>
        <mxCell id="iVxKkr2CtesMYXWZ3AcV-34" value="" style="endArrow=classic;html=1;rounded=0;exitX=0.5;exitY=1;exitDx=0;exitDy=0;entryX=0.5;entryY=0;entryDx=0;entryDy=0;" edge="1" parent="1">
          <mxGeometry width="50" height="50" relative="1" as="geometry">
            <mxPoint x="867.5" y="927" as="sourcePoint" />
            <mxPoint x="867.5" y="1006" as="targetPoint" />
          </mxGeometry>
        </mxCell>
        <mxCell id="iVxKkr2CtesMYXWZ3AcV-35" value="include" style="edgeLabel;html=1;align=center;verticalAlign=middle;resizable=0;points=[];" vertex="1" connectable="0" parent="iVxKkr2CtesMYXWZ3AcV-34">
          <mxGeometry x="-0.1139" y="-1" relative="1" as="geometry">
            <mxPoint as="offset" />
          </mxGeometry>
        </mxCell>
        <mxCell id="iVxKkr2CtesMYXWZ3AcV-36" value="InvokerListener" style="rounded=1;whiteSpace=wrap;html=1;dashed=1;gradientColor=#9AC7BF;" vertex="1" parent="1">
          <mxGeometry x="668" y="1005" width="110" height="30" as="geometry" />
        </mxCell>
        <mxCell id="iVxKkr2CtesMYXWZ3AcV-37" value="" style="endArrow=classic;html=1;rounded=0;entryX=0.5;entryY=0;entryDx=0;entryDy=0;exitX=0.5;exitY=1;exitDx=0;exitDy=0;" edge="1" parent="1" source="iVxKkr2CtesMYXWZ3AcV-10" target="iVxKkr2CtesMYXWZ3AcV-36">
          <mxGeometry width="50" height="50" relative="1" as="geometry">
            <mxPoint x="860" y="930" as="sourcePoint" />
            <mxPoint x="877.5" y="1016" as="targetPoint" />
          </mxGeometry>
        </mxCell>
        <mxCell id="iVxKkr2CtesMYXWZ3AcV-38" value="include" style="edgeLabel;html=1;align=center;verticalAlign=middle;resizable=0;points=[];" vertex="1" connectable="0" parent="iVxKkr2CtesMYXWZ3AcV-37">
          <mxGeometry x="-0.1139" y="-1" relative="1" as="geometry">
            <mxPoint as="offset" />
          </mxGeometry>
        </mxCell>
        <mxCell id="iVxKkr2CtesMYXWZ3AcV-39" value="Filter" style="rounded=1;whiteSpace=wrap;html=1;dashed=1;gradientColor=#9AC7BF;" vertex="1" parent="1">
          <mxGeometry x="958" y="1005" width="110" height="30" as="geometry" />
        </mxCell>
        <mxCell id="iVxKkr2CtesMYXWZ3AcV-40" value="" style="endArrow=classic;html=1;rounded=0;entryX=0.5;entryY=0;entryDx=0;entryDy=0;exitX=0.5;exitY=1;exitDx=0;exitDy=0;" edge="1" parent="1" source="iVxKkr2CtesMYXWZ3AcV-10" target="iVxKkr2CtesMYXWZ3AcV-39">
          <mxGeometry width="50" height="50" relative="1" as="geometry">
            <mxPoint x="878" y="936" as="sourcePoint" />
            <mxPoint x="733" y="1015" as="targetPoint" />
          </mxGeometry>
        </mxCell>
        <mxCell id="iVxKkr2CtesMYXWZ3AcV-41" value="include" style="edgeLabel;html=1;align=center;verticalAlign=middle;resizable=0;points=[];" vertex="1" connectable="0" parent="iVxKkr2CtesMYXWZ3AcV-40">
          <mxGeometry x="-0.1139" y="-1" relative="1" as="geometry">
            <mxPoint as="offset" />
          </mxGeometry>
        </mxCell>
        <mxCell id="iVxKkr2CtesMYXWZ3AcV-42" value="dubbo-registry-api" style="rounded=1;whiteSpace=wrap;html=1;" vertex="1" parent="1">
          <mxGeometry x="1292" y="720" width="178" height="60" as="geometry" />
        </mxCell>
        <mxCell id="iVxKkr2CtesMYXWZ3AcV-43" value="" style="endArrow=classic;html=1;rounded=0;entryX=0.5;entryY=1;entryDx=0;entryDy=0;exitX=0.5;exitY=0;exitDx=0;exitDy=0;" edge="1" parent="1" source="iVxKkr2CtesMYXWZ3AcV-1" target="iVxKkr2CtesMYXWZ3AcV-42">
          <mxGeometry width="50" height="50" relative="1" as="geometry">
            <mxPoint x="1380" y="840" as="sourcePoint" />
            <mxPoint x="1245" y="1015" as="targetPoint" />
          </mxGeometry>
        </mxCell>
        <mxCell id="iVxKkr2CtesMYXWZ3AcV-44" value="dependency" style="edgeLabel;html=1;align=center;verticalAlign=middle;resizable=0;points=[];" vertex="1" connectable="0" parent="iVxKkr2CtesMYXWZ3AcV-43">
          <mxGeometry x="-0.1139" y="-1" relative="1" as="geometry">
            <mxPoint as="offset" />
          </mxGeometry>
        </mxCell>
        <mxCell id="iVxKkr2CtesMYXWZ3AcV-45" value="dubbo-metadata-api" style="rounded=1;whiteSpace=wrap;html=1;" vertex="1" parent="1">
          <mxGeometry x="1292" y="985" width="180" height="50" as="geometry" />
        </mxCell>
        <mxCell id="iVxKkr2CtesMYXWZ3AcV-46" value="" style="endArrow=classic;html=1;rounded=0;entryX=0.5;entryY=0;entryDx=0;entryDy=0;exitX=0.5;exitY=1;exitDx=0;exitDy=0;" edge="1" parent="1" source="iVxKkr2CtesMYXWZ3AcV-1" target="iVxKkr2CtesMYXWZ3AcV-45">
          <mxGeometry width="50" height="50" relative="1" as="geometry">
            <mxPoint x="1382" y="930" as="sourcePoint" />
            <mxPoint x="1390" y="790" as="targetPoint" />
          </mxGeometry>
        </mxCell>
        <mxCell id="iVxKkr2CtesMYXWZ3AcV-47" value="dependency" style="edgeLabel;html=1;align=center;verticalAlign=middle;resizable=0;points=[];" vertex="1" connectable="0" parent="iVxKkr2CtesMYXWZ3AcV-46">
          <mxGeometry x="-0.1139" y="-1" relative="1" as="geometry">
            <mxPoint as="offset" />
          </mxGeometry>
        </mxCell>
        <mxCell id="iVxKkr2CtesMYXWZ3AcV-48" value="&amp;nbsp; &amp;nbsp; &amp;nbsp;AbstractClusterInvoker" style="rounded=1;whiteSpace=wrap;html=1;dashed=1;fillColor=#f8cecc;strokeColor=#b85450;" vertex="1" parent="1">
          <mxGeometry x="1090" y="720" width="182" height="45" as="geometry" />
        </mxCell>
        <mxCell id="iVxKkr2CtesMYXWZ3AcV-49" value="" style="endArrow=classic;html=1;rounded=0;entryX=0.5;entryY=1;entryDx=0;entryDy=0;exitX=0.5;exitY=0;exitDx=0;exitDy=0;" edge="1" parent="1" source="iVxKkr2CtesMYXWZ3AcV-1" target="iVxKkr2CtesMYXWZ3AcV-48">
          <mxGeometry width="50" height="50" relative="1" as="geometry">
            <mxPoint x="1382" y="840" as="sourcePoint" />
            <mxPoint x="989.5" y="775" as="targetPoint" />
          </mxGeometry>
        </mxCell>
        <mxCell id="iVxKkr2CtesMYXWZ3AcV-50" value="include" style="edgeLabel;html=1;align=center;verticalAlign=middle;resizable=0;points=[];" vertex="1" connectable="0" parent="iVxKkr2CtesMYXWZ3AcV-49">
          <mxGeometry x="0.1111" relative="1" as="geometry">
            <mxPoint as="offset" />
          </mxGeometry>
        </mxCell>
        <mxCell id="iVxKkr2CtesMYXWZ3AcV-51" value="LoadBalance" style="rounded=1;whiteSpace=wrap;html=1;dashed=1;gradientColor=#9AC7BF;" vertex="1" parent="1">
          <mxGeometry x="1494" y="730.5" width="140" height="35" as="geometry" />
        </mxCell>
        <mxCell id="iVxKkr2CtesMYXWZ3AcV-52" value="" style="endArrow=classic;html=1;rounded=0;entryX=0.5;entryY=1;entryDx=0;entryDy=0;exitX=0.5;exitY=0;exitDx=0;exitDy=0;" edge="1" parent="1" source="iVxKkr2CtesMYXWZ3AcV-1" target="iVxKkr2CtesMYXWZ3AcV-51">
          <mxGeometry width="50" height="50" relative="1" as="geometry">
            <mxPoint x="1391" y="856" as="sourcePoint" />
            <mxPoint x="1212" y="775" as="targetPoint" />
          </mxGeometry>
        </mxCell>
        <mxCell id="iVxKkr2CtesMYXWZ3AcV-53" value="include" style="edgeLabel;html=1;align=center;verticalAlign=middle;resizable=0;points=[];" vertex="1" connectable="0" parent="iVxKkr2CtesMYXWZ3AcV-52">
          <mxGeometry x="0.1111" relative="1" as="geometry">
            <mxPoint as="offset" />
          </mxGeometry>
        </mxCell>
        <mxCell id="iVxKkr2CtesMYXWZ3AcV-54" value="Router" style="rounded=1;whiteSpace=wrap;html=1;dashed=1;gradientColor=#9AC7BF;" vertex="1" parent="1">
          <mxGeometry x="1494" y="992.5" width="140" height="35" as="geometry" />
        </mxCell>
        <mxCell id="iVxKkr2CtesMYXWZ3AcV-55" value="" style="endArrow=classic;html=1;rounded=0;entryX=0.5;entryY=0;entryDx=0;entryDy=0;exitX=0.5;exitY=1;exitDx=0;exitDy=0;" edge="1" parent="1" source="iVxKkr2CtesMYXWZ3AcV-1" target="iVxKkr2CtesMYXWZ3AcV-54">
          <mxGeometry width="50" height="50" relative="1" as="geometry">
            <mxPoint x="1382" y="930" as="sourcePoint" />
            <mxPoint x="1574" y="775.5" as="targetPoint" />
          </mxGeometry>
        </mxCell>
        <mxCell id="iVxKkr2CtesMYXWZ3AcV-56" value="include" style="edgeLabel;html=1;align=center;verticalAlign=middle;resizable=0;points=[];" vertex="1" connectable="0" parent="iVxKkr2CtesMYXWZ3AcV-55">
          <mxGeometry x="0.1111" relative="1" as="geometry">
            <mxPoint as="offset" />
          </mxGeometry>
        </mxCell>
        <mxCell id="iVxKkr2CtesMYXWZ3AcV-57" value="Configurator" style="rounded=1;whiteSpace=wrap;html=1;dashed=1;gradientColor=#9AC7BF;" vertex="1" parent="1">
          <mxGeometry x="1129" y="992.5" width="140" height="35" as="geometry" />
        </mxCell>
        <mxCell id="iVxKkr2CtesMYXWZ3AcV-58" value="" style="endArrow=classic;html=1;rounded=0;entryX=0.5;entryY=0;entryDx=0;entryDy=0;exitX=0.5;exitY=1;exitDx=0;exitDy=0;" edge="1" parent="1" source="iVxKkr2CtesMYXWZ3AcV-1" target="iVxKkr2CtesMYXWZ3AcV-57">
          <mxGeometry width="50" height="50" relative="1" as="geometry">
            <mxPoint x="1391" y="936" as="sourcePoint" />
            <mxPoint x="1574" y="1002.5" as="targetPoint" />
          </mxGeometry>
        </mxCell>
        <mxCell id="iVxKkr2CtesMYXWZ3AcV-59" value="include" style="edgeLabel;html=1;align=center;verticalAlign=middle;resizable=0;points=[];" vertex="1" connectable="0" parent="iVxKkr2CtesMYXWZ3AcV-58">
          <mxGeometry x="0.1111" relative="1" as="geometry">
            <mxPoint as="offset" />
          </mxGeometry>
        </mxCell>
        <mxCell id="iVxKkr2CtesMYXWZ3AcV-60" value="ClusterInterceptor" style="rounded=1;whiteSpace=wrap;html=1;dashed=1;gradientColor=#9AC7BF;" vertex="1" parent="1">
          <mxGeometry x="1580" y="1056" width="140" height="35" as="geometry" />
        </mxCell>
        <mxCell id="iVxKkr2CtesMYXWZ3AcV-61" value="" style="endArrow=classic;html=1;rounded=0;exitX=1.006;exitY=0.888;exitDx=0;exitDy=0;exitPerimeter=0;" edge="1" parent="1">
          <mxGeometry width="50" height="50" relative="1" as="geometry">
            <mxPoint x="1472.08" y="915.04" as="sourcePoint" />
            <mxPoint x="1650" y="1058" as="targetPoint" />
            <Array as="points">
              <mxPoint x="1650" y="914" />
            </Array>
          </mxGeometry>
        </mxCell>
        <mxCell id="iVxKkr2CtesMYXWZ3AcV-62" value="include" style="edgeLabel;html=1;align=center;verticalAlign=middle;resizable=0;points=[];" vertex="1" connectable="0" parent="iVxKkr2CtesMYXWZ3AcV-61">
          <mxGeometry x="0.1111" relative="1" as="geometry">
            <mxPoint as="offset" />
          </mxGeometry>
        </mxCell>
        <mxCell id="iVxKkr2CtesMYXWZ3AcV-63" value="" style="endArrow=classic;html=1;rounded=0;exitX=1;exitY=0.5;exitDx=0;exitDy=0;entryX=0;entryY=0.5;entryDx=0;entryDy=0;" edge="1" parent="1" target="iVxKkr2CtesMYXWZ3AcV-9">
          <mxGeometry width="50" height="50" relative="1" as="geometry">
            <mxPoint x="1472" y="885.5" as="sourcePoint" />
            <mxPoint x="1805" y="886" as="targetPoint" />
          </mxGeometry>
        </mxCell>
        <mxCell id="iVxKkr2CtesMYXWZ3AcV-95" value="invoke" style="edgeLabel;html=1;align=center;verticalAlign=middle;resizable=0;points=[];" vertex="1" connectable="0" parent="iVxKkr2CtesMYXWZ3AcV-63">
          <mxGeometry x="0.0615" y="-1" relative="1" as="geometry">
            <mxPoint as="offset" />
          </mxGeometry>
        </mxCell>
        <mxCell id="iVxKkr2CtesMYXWZ3AcV-64" value="dubbo-remoting-api" style="rounded=1;whiteSpace=wrap;html=1;" vertex="1" parent="1">
          <mxGeometry x="2180" y="846" width="180" height="80" as="geometry" />
        </mxCell>
        <mxCell id="iVxKkr2CtesMYXWZ3AcV-65" value="" style="endArrow=classic;html=1;rounded=0;exitX=0.5;exitY=0;exitDx=0;exitDy=0;" edge="1" parent="1">
          <mxGeometry width="50" height="50" relative="1" as="geometry">
            <mxPoint x="2269" y="846" as="sourcePoint" />
            <mxPoint x="2269" y="760" as="targetPoint" />
          </mxGeometry>
        </mxCell>
        <mxCell id="iVxKkr2CtesMYXWZ3AcV-66" value="dependency" style="edgeLabel;html=1;align=center;verticalAlign=middle;resizable=0;points=[];" vertex="1" connectable="0" parent="iVxKkr2CtesMYXWZ3AcV-65">
          <mxGeometry x="-0.1139" y="-1" relative="1" as="geometry">
            <mxPoint as="offset" />
          </mxGeometry>
        </mxCell>
        <mxCell id="iVxKkr2CtesMYXWZ3AcV-67" value="" style="endArrow=classic;html=1;rounded=0;exitX=1;exitY=0.5;exitDx=0;exitDy=0;entryX=0;entryY=0.5;entryDx=0;entryDy=0;" edge="1" parent="1" target="iVxKkr2CtesMYXWZ3AcV-64">
          <mxGeometry width="50" height="50" relative="1" as="geometry">
            <mxPoint x="2010" y="885.5" as="sourcePoint" />
            <mxPoint x="2368" y="886" as="targetPoint" />
          </mxGeometry>
        </mxCell>
        <mxCell id="iVxKkr2CtesMYXWZ3AcV-96" value="invoke" style="edgeLabel;html=1;align=center;verticalAlign=middle;resizable=0;points=[];" vertex="1" connectable="0" parent="iVxKkr2CtesMYXWZ3AcV-67">
          <mxGeometry x="0.0824" y="-1" relative="1" as="geometry">
            <mxPoint as="offset" />
          </mxGeometry>
        </mxCell>
        <mxCell id="iVxKkr2CtesMYXWZ3AcV-68" value="dubbo-rpc-dubbo" style="rounded=1;whiteSpace=wrap;html=1;" vertex="1" parent="1">
          <mxGeometry x="1845" y="715" width="150" height="50" as="geometry" />
        </mxCell>
        <mxCell id="iVxKkr2CtesMYXWZ3AcV-69" value="dubbo-rpc-http" style="rounded=1;whiteSpace=wrap;html=1;" vertex="1" parent="1">
          <mxGeometry x="1845" y="1007" width="150" height="50" as="geometry" />
        </mxCell>
        <mxCell id="iVxKkr2CtesMYXWZ3AcV-71" value="" style="endArrow=block;dashed=1;endFill=0;endSize=12;html=1;rounded=0;entryX=0.5;entryY=1;entryDx=0;entryDy=0;exitX=0.5;exitY=0;exitDx=0;exitDy=0;" edge="1" parent="1" source="iVxKkr2CtesMYXWZ3AcV-9" target="iVxKkr2CtesMYXWZ3AcV-68">
          <mxGeometry width="160" relative="1" as="geometry">
            <mxPoint x="1920" y="840" as="sourcePoint" />
            <mxPoint x="2080" y="840" as="targetPoint" />
          </mxGeometry>
        </mxCell>
        <mxCell id="iVxKkr2CtesMYXWZ3AcV-72" value="implement" style="edgeLabel;html=1;align=center;verticalAlign=middle;resizable=0;points=[];" vertex="1" connectable="0" parent="iVxKkr2CtesMYXWZ3AcV-71">
          <mxGeometry x="0.1733" y="-1" relative="1" as="geometry">
            <mxPoint as="offset" />
          </mxGeometry>
        </mxCell>
        <mxCell id="iVxKkr2CtesMYXWZ3AcV-73" value="" style="endArrow=block;dashed=1;endFill=0;endSize=12;html=1;rounded=0;entryX=0.5;entryY=0;entryDx=0;entryDy=0;exitX=0.5;exitY=1;exitDx=0;exitDy=0;" edge="1" parent="1" source="iVxKkr2CtesMYXWZ3AcV-9" target="iVxKkr2CtesMYXWZ3AcV-69">
          <mxGeometry width="160" relative="1" as="geometry">
            <mxPoint x="1920" y="930" as="sourcePoint" />
            <mxPoint x="1930" y="775" as="targetPoint" />
          </mxGeometry>
        </mxCell>
        <mxCell id="iVxKkr2CtesMYXWZ3AcV-74" value="implement" style="edgeLabel;html=1;align=center;verticalAlign=middle;resizable=0;points=[];" vertex="1" connectable="0" parent="iVxKkr2CtesMYXWZ3AcV-73">
          <mxGeometry x="0.1733" y="-1" relative="1" as="geometry">
            <mxPoint as="offset" />
          </mxGeometry>
        </mxCell>
        <mxCell id="iVxKkr2CtesMYXWZ3AcV-76" value="dubbo-remoting-netty4" style="rounded=1;whiteSpace=wrap;html=1;" vertex="1" parent="1">
          <mxGeometry x="2195" y="1006" width="150" height="50" as="geometry" />
        </mxCell>
        <mxCell id="iVxKkr2CtesMYXWZ3AcV-77" value="" style="endArrow=block;dashed=1;endFill=0;endSize=12;html=1;rounded=0;entryX=0.5;entryY=0;entryDx=0;entryDy=0;exitX=0.5;exitY=1;exitDx=0;exitDy=0;" edge="1" parent="1">
          <mxGeometry width="160" relative="1" as="geometry">
            <mxPoint x="2268.5" y="926" as="sourcePoint" />
            <mxPoint x="2268.5" y="1007" as="targetPoint" />
          </mxGeometry>
        </mxCell>
        <mxCell id="iVxKkr2CtesMYXWZ3AcV-78" value="implement" style="edgeLabel;html=1;align=center;verticalAlign=middle;resizable=0;points=[];" vertex="1" connectable="0" parent="iVxKkr2CtesMYXWZ3AcV-77">
          <mxGeometry x="0.1733" y="-1" relative="1" as="geometry">
            <mxPoint as="offset" />
          </mxGeometry>
        </mxCell>
        <mxCell id="iVxKkr2CtesMYXWZ3AcV-79" value="dubbo-serialization-api" style="rounded=1;whiteSpace=wrap;html=1;" vertex="1" parent="1">
          <mxGeometry x="2190" y="710" width="150" height="50" as="geometry" />
        </mxCell>
        <mxCell id="iVxKkr2CtesMYXWZ3AcV-81" value="exchange" style="rounded=1;whiteSpace=wrap;html=1;dashed=1;gradientColor=#9AC7BF;" vertex="1" parent="1">
          <mxGeometry x="2040" y="1014.5" width="140" height="35" as="geometry" />
        </mxCell>
        <mxCell id="iVxKkr2CtesMYXWZ3AcV-82" value="" style="endArrow=classic;html=1;rounded=0;entryX=0.55;entryY=0.014;entryDx=0;entryDy=0;exitX=0.5;exitY=1;exitDx=0;exitDy=0;entryPerimeter=0;" edge="1" parent="1" source="iVxKkr2CtesMYXWZ3AcV-64" target="iVxKkr2CtesMYXWZ3AcV-81">
          <mxGeometry width="50" height="50" relative="1" as="geometry">
            <mxPoint x="1391" y="936" as="sourcePoint" />
            <mxPoint x="1574" y="1002.5" as="targetPoint" />
          </mxGeometry>
        </mxCell>
        <mxCell id="iVxKkr2CtesMYXWZ3AcV-83" value="include" style="edgeLabel;html=1;align=center;verticalAlign=middle;resizable=0;points=[];" vertex="1" connectable="0" parent="iVxKkr2CtesMYXWZ3AcV-82">
          <mxGeometry x="0.1111" relative="1" as="geometry">
            <mxPoint as="offset" />
          </mxGeometry>
        </mxCell>
        <mxCell id="iVxKkr2CtesMYXWZ3AcV-84" value="transport" style="rounded=1;whiteSpace=wrap;html=1;dashed=1;gradientColor=#9AC7BF;" vertex="1" parent="1">
          <mxGeometry x="2360" y="1014.5" width="140" height="35" as="geometry" />
        </mxCell>
        <mxCell id="iVxKkr2CtesMYXWZ3AcV-85" value="" style="endArrow=classic;html=1;rounded=0;entryX=0.5;entryY=0;entryDx=0;entryDy=0;exitX=0.5;exitY=1;exitDx=0;exitDy=0;" edge="1" parent="1" source="iVxKkr2CtesMYXWZ3AcV-64" target="iVxKkr2CtesMYXWZ3AcV-84">
          <mxGeometry width="50" height="50" relative="1" as="geometry">
            <mxPoint x="2280" y="936" as="sourcePoint" />
            <mxPoint x="2127" y="1024.9899999999998" as="targetPoint" />
          </mxGeometry>
        </mxCell>
        <mxCell id="iVxKkr2CtesMYXWZ3AcV-86" value="include" style="edgeLabel;html=1;align=center;verticalAlign=middle;resizable=0;points=[];" vertex="1" connectable="0" parent="iVxKkr2CtesMYXWZ3AcV-85">
          <mxGeometry x="0.1111" relative="1" as="geometry">
            <mxPoint as="offset" />
          </mxGeometry>
        </mxCell>
        <mxCell id="iVxKkr2CtesMYXWZ3AcV-87" value="filter、cluster、timeout、monitor、router、loadbalance、protocol、group" style="ellipse;whiteSpace=wrap;html=1;strokeWidth=0;gradientColor=#9AC7BF;" vertex="1" parent="1">
          <mxGeometry x="391" y="584" width="164" height="85" as="geometry" />
        </mxCell>
        <mxCell id="iVxKkr2CtesMYXWZ3AcV-88" value="protocol、serialization、timeout、group" style="ellipse;whiteSpace=wrap;html=1;strokeWidth=0;gradientColor=#9AC7BF;" vertex="1" parent="1">
          <mxGeometry x="389" y="1110" width="164" height="85" as="geometry" />
        </mxCell>
        <mxCell id="iVxKkr2CtesMYXWZ3AcV-89" value="" style="endArrow=classic;html=1;rounded=0;entryX=0.5;entryY=1;entryDx=0;entryDy=0;" edge="1" parent="1">
          <mxGeometry width="50" height="50" relative="1" as="geometry">
            <mxPoint x="473" y="734" as="sourcePoint" />
            <mxPoint x="472.5" y="669" as="targetPoint" />
          </mxGeometry>
        </mxCell>
        <mxCell id="iVxKkr2CtesMYXWZ3AcV-90" value="support config" style="edgeLabel;html=1;align=center;verticalAlign=middle;resizable=0;points=[];" vertex="1" connectable="0" parent="iVxKkr2CtesMYXWZ3AcV-89">
          <mxGeometry x="0.1111" relative="1" as="geometry">
            <mxPoint as="offset" />
          </mxGeometry>
        </mxCell>
        <mxCell id="iVxKkr2CtesMYXWZ3AcV-91" value="" style="endArrow=classic;html=1;rounded=0;entryX=0.5;entryY=0;entryDx=0;entryDy=0;exitX=0.5;exitY=1;exitDx=0;exitDy=0;" edge="1" parent="1" source="iVxKkr2CtesMYXWZ3AcV-20" target="iVxKkr2CtesMYXWZ3AcV-88">
          <mxGeometry width="50" height="50" relative="1" as="geometry">
            <mxPoint x="540.5" y="1085" as="sourcePoint" />
            <mxPoint x="540" y="1020" as="targetPoint" />
          </mxGeometry>
        </mxCell>
        <mxCell id="iVxKkr2CtesMYXWZ3AcV-92" value="support config" style="edgeLabel;html=1;align=center;verticalAlign=middle;resizable=0;points=[];" vertex="1" connectable="0" parent="iVxKkr2CtesMYXWZ3AcV-91">
          <mxGeometry x="0.1111" relative="1" as="geometry">
            <mxPoint as="offset" />
          </mxGeometry>
        </mxCell>
        <mxCell id="iVxKkr2CtesMYXWZ3AcV-97" value="dubbo-monitor-api" style="rounded=1;whiteSpace=wrap;html=1;" vertex="1" parent="1">
          <mxGeometry x="930" y="1140" width="180" height="60" as="geometry" />
        </mxCell>
        <mxCell id="iVxKkr2CtesMYXWZ3AcV-100" value="dubbo-monitor-default/dubbo" style="rounded=1;whiteSpace=wrap;html=1;" vertex="1" parent="1">
          <mxGeometry x="1022" y="1270" width="180" height="60" as="geometry" />
        </mxCell>
        <mxCell id="iVxKkr2CtesMYXWZ3AcV-103" value="dubbo-monitor-other......" style="rounded=1;whiteSpace=wrap;html=1;" vertex="1" parent="1">
          <mxGeometry x="802" y="1271" width="180" height="60" as="geometry" />
        </mxCell>
        <mxCell id="iVxKkr2CtesMYXWZ3AcV-106" value="RegistryProtocol" style="rounded=1;whiteSpace=wrap;html=1;dashed=1;fillColor=#e1d5e7;strokeColor=#9673a6;" vertex="1" parent="1">
          <mxGeometry x="1327" y="593.5" width="110" height="30" as="geometry" />
        </mxCell>
        <mxCell id="iVxKkr2CtesMYXWZ3AcV-107" value="DubboProtocol" style="rounded=1;whiteSpace=wrap;html=1;dashed=1;fillColor=#e1d5e7;strokeColor=#9673a6;" vertex="1" parent="1">
          <mxGeometry x="1796" y="620" width="110" height="30" as="geometry" />
        </mxCell>
        <mxCell id="iVxKkr2CtesMYXWZ3AcV-108" value="ProtocolFilterWrapper" style="rounded=1;whiteSpace=wrap;html=1;dashed=1;fillColor=#e1d5e7;strokeColor=#9673a6;" vertex="1" parent="1">
          <mxGeometry x="740" y="554" width="133" height="30" as="geometry" />
        </mxCell>
        <mxCell id="iVxKkr2CtesMYXWZ3AcV-109" value="ProtocolListenerWrapper" style="rounded=1;whiteSpace=wrap;html=1;dashed=1;fillColor=#e1d5e7;strokeColor=#9673a6;" vertex="1" parent="1">
          <mxGeometry x="880" y="555" width="133" height="30" as="geometry" />
        </mxCell>
        <mxCell id="iVxKkr2CtesMYXWZ3AcV-110" value="Invoker" style="rounded=1;whiteSpace=wrap;html=1;dashed=1;fillColor=#f8cecc;strokeColor=#b85450;" vertex="1" parent="1">
          <mxGeometry x="640" y="736" width="110" height="30" as="geometry" />
        </mxCell>
        <mxCell id="iVxKkr2CtesMYXWZ3AcV-111" value="" style="endArrow=classic;html=1;rounded=0;entryX=0.5;entryY=1;entryDx=0;entryDy=0;exitX=0.5;exitY=0;exitDx=0;exitDy=0;" edge="1" parent="1" source="iVxKkr2CtesMYXWZ3AcV-10" target="iVxKkr2CtesMYXWZ3AcV-110">
          <mxGeometry width="50" height="50" relative="1" as="geometry">
            <mxPoint x="878" y="936" as="sourcePoint" />
            <mxPoint x="733" y="1015" as="targetPoint" />
          </mxGeometry>
        </mxCell>
        <mxCell id="iVxKkr2CtesMYXWZ3AcV-112" value="include" style="edgeLabel;html=1;align=center;verticalAlign=middle;resizable=0;points=[];" vertex="1" connectable="0" parent="iVxKkr2CtesMYXWZ3AcV-111">
          <mxGeometry x="-0.1139" y="-1" relative="1" as="geometry">
            <mxPoint as="offset" />
          </mxGeometry>
        </mxCell>
        <mxCell id="iVxKkr2CtesMYXWZ3AcV-114" value="" style="endArrow=block;dashed=1;endFill=0;endSize=12;html=1;rounded=0;entryX=0.5;entryY=1;entryDx=0;entryDy=0;exitX=0.461;exitY=-0.033;exitDx=0;exitDy=0;exitPerimeter=0;" edge="1" parent="1" source="iVxKkr2CtesMYXWZ3AcV-97">
          <mxGeometry width="160" relative="1" as="geometry">
            <mxPoint x="1012.5" y="1116" as="sourcePoint" />
            <mxPoint x="1012.5" y="1035" as="targetPoint" />
          </mxGeometry>
        </mxCell>
        <mxCell id="iVxKkr2CtesMYXWZ3AcV-115" value="implement" style="edgeLabel;html=1;align=center;verticalAlign=middle;resizable=0;points=[];" vertex="1" connectable="0" parent="iVxKkr2CtesMYXWZ3AcV-114">
          <mxGeometry x="0.1733" y="-1" relative="1" as="geometry">
            <mxPoint as="offset" />
          </mxGeometry>
        </mxCell>
        <mxCell id="iVxKkr2CtesMYXWZ3AcV-116" value="" style="endArrow=block;dashed=1;endFill=0;endSize=12;html=1;rounded=0;entryX=0.5;entryY=0;entryDx=0;entryDy=0;exitX=0.5;exitY=1;exitDx=0;exitDy=0;" edge="1" parent="1" target="iVxKkr2CtesMYXWZ3AcV-103">
          <mxGeometry width="160" relative="1" as="geometry">
            <mxPoint x="1012" y="1200" as="sourcePoint" />
            <mxPoint x="901" y="1240" as="targetPoint" />
          </mxGeometry>
        </mxCell>
        <mxCell id="iVxKkr2CtesMYXWZ3AcV-117" value="implement" style="edgeLabel;html=1;align=center;verticalAlign=middle;resizable=0;points=[];" vertex="1" connectable="0" parent="iVxKkr2CtesMYXWZ3AcV-116">
          <mxGeometry x="0.1733" y="-1" relative="1" as="geometry">
            <mxPoint as="offset" />
          </mxGeometry>
        </mxCell>
        <mxCell id="iVxKkr2CtesMYXWZ3AcV-118" value="" style="endArrow=block;dashed=1;endFill=0;endSize=12;html=1;rounded=0;entryX=0.5;entryY=0;entryDx=0;entryDy=0;exitX=0.5;exitY=1;exitDx=0;exitDy=0;" edge="1" parent="1" target="iVxKkr2CtesMYXWZ3AcV-100">
          <mxGeometry width="160" relative="1" as="geometry">
            <mxPoint x="1012" y="1200" as="sourcePoint" />
            <mxPoint x="902" y="1281" as="targetPoint" />
          </mxGeometry>
        </mxCell>
        <mxCell id="iVxKkr2CtesMYXWZ3AcV-119" value="implement" style="edgeLabel;html=1;align=center;verticalAlign=middle;resizable=0;points=[];" vertex="1" connectable="0" parent="iVxKkr2CtesMYXWZ3AcV-118">
          <mxGeometry x="0.1733" y="-1" relative="1" as="geometry">
            <mxPoint as="offset" />
          </mxGeometry>
        </mxCell>
        <mxCell id="iVxKkr2CtesMYXWZ3AcV-122" value="" style="endArrow=block;dashed=1;endFill=0;endSize=12;html=1;rounded=0;exitX=0;exitY=0.5;exitDx=0;exitDy=0;" edge="1" parent="1" source="iVxKkr2CtesMYXWZ3AcV-107">
          <mxGeometry width="160" relative="1" as="geometry">
            <mxPoint x="1002" y="658" as="sourcePoint" />
            <mxPoint x="1002" y="731" as="targetPoint" />
            <Array as="points">
              <mxPoint x="1002" y="635" />
            </Array>
          </mxGeometry>
        </mxCell>
        <mxCell id="iVxKkr2CtesMYXWZ3AcV-123" value="implement" style="edgeLabel;html=1;align=center;verticalAlign=middle;resizable=0;points=[];" vertex="1" connectable="0" parent="iVxKkr2CtesMYXWZ3AcV-122">
          <mxGeometry x="0.1733" y="-1" relative="1" as="geometry">
            <mxPoint as="offset" />
          </mxGeometry>
        </mxCell>
        <mxCell id="iVxKkr2CtesMYXWZ3AcV-124" value="" style="endArrow=block;dashed=1;endFill=0;endSize=12;html=1;rounded=0;exitX=0;exitY=0.5;exitDx=0;exitDy=0;" edge="1" parent="1" source="iVxKkr2CtesMYXWZ3AcV-106">
          <mxGeometry width="160" relative="1" as="geometry">
            <mxPoint x="1327" y="627" as="sourcePoint" />
            <mxPoint x="960" y="730" as="targetPoint" />
            <Array as="points">
              <mxPoint x="960" y="610" />
            </Array>
          </mxGeometry>
        </mxCell>
        <mxCell id="iVxKkr2CtesMYXWZ3AcV-125" value="implement" style="edgeLabel;html=1;align=center;verticalAlign=middle;resizable=0;points=[];" vertex="1" connectable="0" parent="iVxKkr2CtesMYXWZ3AcV-124">
          <mxGeometry x="0.1733" y="-1" relative="1" as="geometry">
            <mxPoint as="offset" />
          </mxGeometry>
        </mxCell>
        <mxCell id="iVxKkr2CtesMYXWZ3AcV-126" value="" style="endArrow=block;dashed=1;endFill=0;endSize=12;html=1;rounded=0;exitX=0.308;exitY=1;exitDx=0;exitDy=0;entryX=0.592;entryY=0.178;entryDx=0;entryDy=0;entryPerimeter=0;exitPerimeter=0;" edge="1" parent="1">
          <mxGeometry width="160" relative="1" as="geometry">
            <mxPoint x="920.9639999999999" y="580" as="sourcePoint" />
            <mxPoint x="920.0360000000001" y="734.9970000000001" as="targetPoint" />
          </mxGeometry>
        </mxCell>
        <mxCell id="iVxKkr2CtesMYXWZ3AcV-127" value="implement" style="edgeLabel;html=1;align=center;verticalAlign=middle;resizable=0;points=[];" vertex="1" connectable="0" parent="iVxKkr2CtesMYXWZ3AcV-126">
          <mxGeometry x="0.1733" y="-1" relative="1" as="geometry">
            <mxPoint as="offset" />
          </mxGeometry>
        </mxCell>
        <mxCell id="iVxKkr2CtesMYXWZ3AcV-128" value="" style="endArrow=block;dashed=1;endFill=0;endSize=12;html=1;rounded=0;exitX=0.835;exitY=1.067;exitDx=0;exitDy=0;entryX=0.25;entryY=0;entryDx=0;entryDy=0;exitPerimeter=0;" edge="1" parent="1" source="iVxKkr2CtesMYXWZ3AcV-108">
          <mxGeometry width="160" relative="1" as="geometry">
            <mxPoint x="793.5" y="584" as="sourcePoint" />
            <mxPoint x="849.625" y="733.5" as="targetPoint" />
          </mxGeometry>
        </mxCell>
        <mxCell id="iVxKkr2CtesMYXWZ3AcV-129" value="implement" style="edgeLabel;html=1;align=center;verticalAlign=middle;resizable=0;points=[];" vertex="1" connectable="0" parent="iVxKkr2CtesMYXWZ3AcV-128">
          <mxGeometry x="0.1733" y="-1" relative="1" as="geometry">
            <mxPoint as="offset" />
          </mxGeometry>
        </mxCell>
        <mxCell id="iVxKkr2CtesMYXWZ3AcV-131" value="DubboInvoker" style="rounded=1;whiteSpace=wrap;html=1;dashed=1;fillColor=#f8cecc;strokeColor=#b85450;" vertex="1" parent="1">
          <mxGeometry x="1920" y="620" width="110" height="30" as="geometry" />
        </mxCell>
        <mxCell id="iVxKkr2CtesMYXWZ3AcV-132" value="" style="endArrow=classic;html=1;rounded=0;entryX=0.5;entryY=1;entryDx=0;entryDy=0;exitX=0.5;exitY=0;exitDx=0;exitDy=0;" edge="1" parent="1">
          <mxGeometry width="50" height="50" relative="1" as="geometry">
            <mxPoint x="1975" y="715" as="sourcePoint" />
            <mxPoint x="1974.5" y="650" as="targetPoint" />
          </mxGeometry>
        </mxCell>
        <mxCell id="iVxKkr2CtesMYXWZ3AcV-133" value="include" style="edgeLabel;html=1;align=center;verticalAlign=middle;resizable=0;points=[];" vertex="1" connectable="0" parent="iVxKkr2CtesMYXWZ3AcV-132">
          <mxGeometry x="0.1111" relative="1" as="geometry">
            <mxPoint as="offset" />
          </mxGeometry>
        </mxCell>
        <mxCell id="iVxKkr2CtesMYXWZ3AcV-134" value="" style="endArrow=classic;html=1;rounded=0;entryX=0.5;entryY=1;entryDx=0;entryDy=0;exitX=0.5;exitY=0;exitDx=0;exitDy=0;" edge="1" parent="1">
          <mxGeometry width="50" height="50" relative="1" as="geometry">
            <mxPoint x="1864" y="715" as="sourcePoint" />
            <mxPoint x="1863.5" y="650" as="targetPoint" />
          </mxGeometry>
        </mxCell>
        <mxCell id="iVxKkr2CtesMYXWZ3AcV-135" value="include" style="edgeLabel;html=1;align=center;verticalAlign=middle;resizable=0;points=[];" vertex="1" connectable="0" parent="iVxKkr2CtesMYXWZ3AcV-134">
          <mxGeometry x="0.1111" relative="1" as="geometry">
            <mxPoint as="offset" />
          </mxGeometry>
        </mxCell>
        <mxCell id="iVxKkr2CtesMYXWZ3AcV-138" value="" style="endArrow=classic;html=1;rounded=0;entryX=0.5;entryY=1;entryDx=0;entryDy=0;exitX=0.5;exitY=0;exitDx=0;exitDy=0;" edge="1" parent="1" source="iVxKkr2CtesMYXWZ3AcV-42">
          <mxGeometry width="50" height="50" relative="1" as="geometry">
            <mxPoint x="1381" y="688.5" as="sourcePoint" />
            <mxPoint x="1380.5" y="623.5" as="targetPoint" />
          </mxGeometry>
        </mxCell>
        <mxCell id="iVxKkr2CtesMYXWZ3AcV-139" value="include" style="edgeLabel;html=1;align=center;verticalAlign=middle;resizable=0;points=[];" vertex="1" connectable="0" parent="iVxKkr2CtesMYXWZ3AcV-138">
          <mxGeometry x="0.1111" relative="1" as="geometry">
            <mxPoint as="offset" />
          </mxGeometry>
        </mxCell>
        <mxCell id="iVxKkr2CtesMYXWZ3AcV-140" value="" style="endArrow=block;dashed=1;endFill=0;endSize=12;html=1;rounded=0;exitX=0.5;exitY=0;exitDx=0;exitDy=0;entryX=0.5;entryY=0;entryDx=0;entryDy=0;" edge="1" parent="1" source="iVxKkr2CtesMYXWZ3AcV-131" target="iVxKkr2CtesMYXWZ3AcV-110">
          <mxGeometry width="160" relative="1" as="geometry">
            <mxPoint x="1806" y="645" as="sourcePoint" />
            <mxPoint x="1012" y="741" as="targetPoint" />
            <Array as="points">
              <mxPoint x="1975" y="520" />
              <mxPoint x="695" y="520" />
            </Array>
          </mxGeometry>
        </mxCell>
        <mxCell id="iVxKkr2CtesMYXWZ3AcV-141" value="implement" style="edgeLabel;html=1;align=center;verticalAlign=middle;resizable=0;points=[];" vertex="1" connectable="0" parent="iVxKkr2CtesMYXWZ3AcV-140">
          <mxGeometry x="0.1733" y="-1" relative="1" as="geometry">
            <mxPoint as="offset" />
          </mxGeometry>
        </mxCell>
        <mxCell id="iVxKkr2CtesMYXWZ3AcV-142" value="dubbo-serialization-fastjson" style="rounded=1;whiteSpace=wrap;html=1;" vertex="1" parent="1">
          <mxGeometry x="2090" y="577" width="160" height="50" as="geometry" />
        </mxCell>
        <mxCell id="iVxKkr2CtesMYXWZ3AcV-143" value="dubbo-serialization-protobuf" style="rounded=1;whiteSpace=wrap;html=1;" vertex="1" parent="1">
          <mxGeometry x="2288" y="577" width="160" height="50" as="geometry" />
        </mxCell>
        <mxCell id="iVxKkr2CtesMYXWZ3AcV-144" value="" style="endArrow=block;dashed=1;endFill=0;endSize=12;html=1;rounded=0;entryX=0.5;entryY=0;entryDx=0;entryDy=0;exitX=0.5;exitY=1;exitDx=0;exitDy=0;" edge="1" parent="1">
          <mxGeometry width="160" relative="1" as="geometry">
            <mxPoint x="2210" y="629" as="sourcePoint" />
            <mxPoint x="2210" y="710" as="targetPoint" />
          </mxGeometry>
        </mxCell>
        <mxCell id="iVxKkr2CtesMYXWZ3AcV-145" value="implement" style="edgeLabel;html=1;align=center;verticalAlign=middle;resizable=0;points=[];" vertex="1" connectable="0" parent="iVxKkr2CtesMYXWZ3AcV-144">
          <mxGeometry x="0.1733" y="-1" relative="1" as="geometry">
            <mxPoint as="offset" />
          </mxGeometry>
        </mxCell>
        <mxCell id="iVxKkr2CtesMYXWZ3AcV-146" value="" style="endArrow=block;dashed=1;endFill=0;endSize=12;html=1;rounded=0;entryX=0.5;entryY=0;entryDx=0;entryDy=0;exitX=0.5;exitY=1;exitDx=0;exitDy=0;" edge="1" parent="1">
          <mxGeometry width="160" relative="1" as="geometry">
            <mxPoint x="2320" y="629" as="sourcePoint" />
            <mxPoint x="2320" y="710" as="targetPoint" />
          </mxGeometry>
        </mxCell>
        <mxCell id="iVxKkr2CtesMYXWZ3AcV-147" value="implement" style="edgeLabel;html=1;align=center;verticalAlign=middle;resizable=0;points=[];" vertex="1" connectable="0" parent="iVxKkr2CtesMYXWZ3AcV-146">
          <mxGeometry x="0.1733" y="-1" relative="1" as="geometry">
            <mxPoint as="offset" />
          </mxGeometry>
        </mxCell>
        <mxCell id="iVxKkr2CtesMYXWZ3AcV-148" value="" style="endArrow=classic;html=1;rounded=0;entryX=0.5;entryY=0;entryDx=0;entryDy=0;" edge="1" parent="1" target="iVxKkr2CtesMYXWZ3AcV-5">
          <mxGeometry width="50" height="50" relative="1" as="geometry">
            <mxPoint x="380" y="920" as="sourcePoint" />
            <mxPoint x="270" y="1000" as="targetPoint" />
            <Array as="points">
              <mxPoint x="160" y="920" />
            </Array>
          </mxGeometry>
        </mxCell>
        <mxCell id="iVxKkr2CtesMYXWZ3AcV-149" value="dependency" style="edgeLabel;html=1;align=center;verticalAlign=middle;resizable=0;points=[];" vertex="1" connectable="0" parent="iVxKkr2CtesMYXWZ3AcV-148">
          <mxGeometry x="-0.1139" y="-1" relative="1" as="geometry">
            <mxPoint as="offset" />
          </mxGeometry>
        </mxCell>
        <mxCell id="iVxKkr2CtesMYXWZ3AcV-150" value="dubbo-configcenter-nacos" style="rounded=1;whiteSpace=wrap;html=1;" vertex="1" parent="1">
          <mxGeometry x="-79" y="1119" width="160" height="50.5" as="geometry" />
        </mxCell>
        <mxCell id="iVxKkr2CtesMYXWZ3AcV-151" value="dubbo-configcenter-nacos" style="rounded=1;whiteSpace=wrap;html=1;" vertex="1" parent="1">
          <mxGeometry x="219" y="1119" width="160" height="50.5" as="geometry" />
        </mxCell>
        <mxCell id="iVxKkr2CtesMYXWZ3AcV-152" value="" style="endArrow=block;dashed=1;endFill=0;endSize=12;html=1;rounded=0;entryX=0;entryY=0.5;entryDx=0;entryDy=0;exitX=0.461;exitY=-0.033;exitDx=0;exitDy=0;exitPerimeter=0;" edge="1" parent="1" target="iVxKkr2CtesMYXWZ3AcV-5">
          <mxGeometry width="160" relative="1" as="geometry">
            <mxPoint x="1.8207657603852567e-14" y="1119" as="sourcePoint" />
            <mxPoint x="40.02" y="1032.25" as="targetPoint" />
            <Array as="points">
              <mxPoint x="0.020000000000000018" y="1032" />
            </Array>
          </mxGeometry>
        </mxCell>
        <mxCell id="iVxKkr2CtesMYXWZ3AcV-153" value="implement" style="edgeLabel;html=1;align=center;verticalAlign=middle;resizable=0;points=[];" vertex="1" connectable="0" parent="iVxKkr2CtesMYXWZ3AcV-152">
          <mxGeometry x="0.1733" y="-1" relative="1" as="geometry">
            <mxPoint as="offset" />
          </mxGeometry>
        </mxCell>
        <mxCell id="iVxKkr2CtesMYXWZ3AcV-154" value="" style="endArrow=block;dashed=1;endFill=0;endSize=12;html=1;rounded=0;entryX=1;entryY=0.5;entryDx=0;entryDy=0;exitX=0.5;exitY=0;exitDx=0;exitDy=0;" edge="1" parent="1" source="iVxKkr2CtesMYXWZ3AcV-151" target="iVxKkr2CtesMYXWZ3AcV-5">
          <mxGeometry width="160" relative="1" as="geometry">
            <mxPoint x="68.98000000000002" y="1129" as="sourcePoint" />
            <mxPoint x="259" y="1032.25" as="targetPoint" />
            <Array as="points">
              <mxPoint x="299" y="1032" />
            </Array>
          </mxGeometry>
        </mxCell>
        <mxCell id="iVxKkr2CtesMYXWZ3AcV-155" value="implement" style="edgeLabel;html=1;align=center;verticalAlign=middle;resizable=0;points=[];" vertex="1" connectable="0" parent="iVxKkr2CtesMYXWZ3AcV-154">
          <mxGeometry x="0.1733" y="-1" relative="1" as="geometry">
            <mxPoint as="offset" />
          </mxGeometry>
        </mxCell>
        <mxCell id="iVxKkr2CtesMYXWZ3AcV-156" value="&amp;nbsp; &amp;nbsp; &amp;nbsp;FailfastClusterInvoker" style="rounded=1;whiteSpace=wrap;html=1;dashed=1;fillColor=#f8cecc;strokeColor=#b85450;" vertex="1" parent="1">
          <mxGeometry x="1202" y="430" width="182" height="45" as="geometry" />
        </mxCell>
        <mxCell id="iVxKkr2CtesMYXWZ3AcV-157" value="&amp;nbsp; &amp;nbsp; &amp;nbsp;FailoverClusterInvoker" style="rounded=1;whiteSpace=wrap;html=1;dashed=1;fillColor=#f8cecc;strokeColor=#b85450;" vertex="1" parent="1">
          <mxGeometry x="970" y="430" width="182" height="45" as="geometry" />
        </mxCell>
        <mxCell id="iVxKkr2CtesMYXWZ3AcV-158" value="" style="endArrow=block;dashed=1;endFill=0;endSize=12;html=1;rounded=0;entryX=0.088;entryY=-0.022;entryDx=0;entryDy=0;exitX=0.75;exitY=1;exitDx=0;exitDy=0;entryPerimeter=0;" edge="1" parent="1">
          <mxGeometry width="160" relative="1" as="geometry">
            <mxPoint x="1107.5" y="475" as="sourcePoint" />
            <mxPoint x="1107.016" y="719.01" as="targetPoint" />
          </mxGeometry>
        </mxCell>
        <mxCell id="iVxKkr2CtesMYXWZ3AcV-159" value="implement" style="edgeLabel;html=1;align=center;verticalAlign=middle;resizable=0;points=[];" vertex="1" connectable="0" parent="iVxKkr2CtesMYXWZ3AcV-158">
          <mxGeometry x="0.1733" y="-1" relative="1" as="geometry">
            <mxPoint as="offset" />
          </mxGeometry>
        </mxCell>
        <mxCell id="iVxKkr2CtesMYXWZ3AcV-160" value="" style="endArrow=block;dashed=1;endFill=0;endSize=12;html=1;rounded=0;entryX=0.088;entryY=-0.022;entryDx=0;entryDy=0;exitX=0.75;exitY=1;exitDx=0;exitDy=0;entryPerimeter=0;" edge="1" parent="1">
          <mxGeometry width="160" relative="1" as="geometry">
            <mxPoint x="1250.48" y="475" as="sourcePoint" />
            <mxPoint x="1249.996" y="719.01" as="targetPoint" />
          </mxGeometry>
        </mxCell>
        <mxCell id="iVxKkr2CtesMYXWZ3AcV-161" value="implement" style="edgeLabel;html=1;align=center;verticalAlign=middle;resizable=0;points=[];" vertex="1" connectable="0" parent="iVxKkr2CtesMYXWZ3AcV-160">
          <mxGeometry x="0.1733" y="-1" relative="1" as="geometry">
            <mxPoint as="offset" />
          </mxGeometry>
        </mxCell>
        <mxCell id="iVxKkr2CtesMYXWZ3AcV-162" value="" style="endArrow=block;dashed=1;endFill=0;endSize=12;html=1;rounded=0;exitX=0;exitY=0.5;exitDx=0;exitDy=0;entryX=0;entryY=0;entryDx=0;entryDy=0;" edge="1" parent="1" source="iVxKkr2CtesMYXWZ3AcV-157" target="iVxKkr2CtesMYXWZ3AcV-110">
          <mxGeometry width="160" relative="1" as="geometry">
            <mxPoint x="1116.5" y="485" as="sourcePoint" />
            <mxPoint x="670" y="453" as="targetPoint" />
            <Array as="points">
              <mxPoint x="640" y="453" />
            </Array>
          </mxGeometry>
        </mxCell>
        <mxCell id="iVxKkr2CtesMYXWZ3AcV-163" value="implement" style="edgeLabel;html=1;align=center;verticalAlign=middle;resizable=0;points=[];" vertex="1" connectable="0" parent="iVxKkr2CtesMYXWZ3AcV-162">
          <mxGeometry x="0.1733" y="-1" relative="1" as="geometry">
            <mxPoint as="offset" />
          </mxGeometry>
        </mxCell>
        <mxCell id="iVxKkr2CtesMYXWZ3AcV-164" value="" style="endArrow=block;dashed=1;endFill=0;endSize=12;html=1;rounded=0;exitX=0.5;exitY=0;exitDx=0;exitDy=0;" edge="1" parent="1" source="iVxKkr2CtesMYXWZ3AcV-156">
          <mxGeometry width="160" relative="1" as="geometry">
            <mxPoint x="1260.48" y="485" as="sourcePoint" />
            <mxPoint x="640" y="453" as="targetPoint" />
            <Array as="points">
              <mxPoint x="1293" y="400" />
              <mxPoint x="640" y="400" />
            </Array>
          </mxGeometry>
        </mxCell>
        <mxCell id="iVxKkr2CtesMYXWZ3AcV-165" value="implement" style="edgeLabel;html=1;align=center;verticalAlign=middle;resizable=0;points=[];" vertex="1" connectable="0" parent="iVxKkr2CtesMYXWZ3AcV-164">
          <mxGeometry x="0.1733" y="-1" relative="1" as="geometry">
            <mxPoint as="offset" />
          </mxGeometry>
        </mxCell>
        <mxCell id="iVxKkr2CtesMYXWZ3AcV-166" value="" style="endArrow=classic;html=1;rounded=0;entryX=0.091;entryY=1.033;entryDx=0;entryDy=0;entryPerimeter=0;exitX=0.25;exitY=1;exitDx=0;exitDy=0;" edge="1" parent="1" source="iVxKkr2CtesMYXWZ3AcV-39" target="iVxKkr2CtesMYXWZ3AcV-110">
          <mxGeometry width="50" height="50" relative="1" as="geometry">
            <mxPoint x="960" y="1040" as="sourcePoint" />
            <mxPoint x="650" y="770" as="targetPoint" />
            <Array as="points">
              <mxPoint x="986" y="1120" />
              <mxPoint x="650" y="1120" />
            </Array>
          </mxGeometry>
        </mxCell>
        <mxCell id="iVxKkr2CtesMYXWZ3AcV-167" value="包装成InvokerChain" style="edgeLabel;html=1;align=center;verticalAlign=middle;resizable=0;points=[];" vertex="1" connectable="0" parent="iVxKkr2CtesMYXWZ3AcV-166">
          <mxGeometry x="0.1111" relative="1" as="geometry">
            <mxPoint as="offset" />
          </mxGeometry>
        </mxCell>
        <mxCell id="iVxKkr2CtesMYXWZ3AcV-168" value="InvokerChain" style="rounded=1;whiteSpace=wrap;html=1;dashed=1;fillColor=#f8cecc;strokeColor=#b85450;" vertex="1" parent="1">
          <mxGeometry x="772" y="1105" width="110" height="30" as="geometry" />
        </mxCell>
        <mxCell id="iVxKkr2CtesMYXWZ3AcV-171" value="" style="endArrow=classic;html=1;rounded=0;entryX=0.439;entryY=1;entryDx=0;entryDy=0;entryPerimeter=0;exitX=0.106;exitY=-0.037;exitDx=0;exitDy=0;exitPerimeter=0;" edge="1" parent="1" source="iVxKkr2CtesMYXWZ3AcV-4" target="iVxKkr2CtesMYXWZ3AcV-6">
          <mxGeometry width="50" height="50" relative="1" as="geometry">
            <mxPoint x="380" y="850" as="sourcePoint" />
            <mxPoint x="170" y="1017" as="targetPoint" />
            <Array as="points">
              <mxPoint x="400" y="760" />
              <mxPoint x="229" y="760" />
            </Array>
          </mxGeometry>
        </mxCell>
        <mxCell id="iVxKkr2CtesMYXWZ3AcV-172" value="dependency" style="edgeLabel;html=1;align=center;verticalAlign=middle;resizable=0;points=[];" vertex="1" connectable="0" parent="iVxKkr2CtesMYXWZ3AcV-171">
          <mxGeometry x="-0.1139" y="-1" relative="1" as="geometry">
            <mxPoint as="offset" />
          </mxGeometry>
        </mxCell>
        <mxCell id="iVxKkr2CtesMYXWZ3AcV-173" value="dubbo-configcenter-nacos" style="rounded=1;whiteSpace=wrap;html=1;" vertex="1" parent="1">
          <mxGeometry x="70" y="455" width="160" height="50.5" as="geometry" />
        </mxCell>
        <mxCell id="iVxKkr2CtesMYXWZ3AcV-174" value="dubbo-configcenter-apollo" style="rounded=1;whiteSpace=wrap;html=1;" vertex="1" parent="1">
          <mxGeometry x="270" y="455" width="160" height="50.5" as="geometry" />
        </mxCell>
        <mxCell id="iVxKkr2CtesMYXWZ3AcV-175" value="" style="endArrow=block;dashed=1;endFill=0;endSize=12;html=1;rounded=0;exitX=0.75;exitY=1;exitDx=0;exitDy=0;entryX=0.217;entryY=0;entryDx=0;entryDy=0;entryPerimeter=0;" edge="1" parent="1" source="iVxKkr2CtesMYXWZ3AcV-173" target="iVxKkr2CtesMYXWZ3AcV-6">
          <mxGeometry width="160" relative="1" as="geometry">
            <mxPoint x="60" y="669" as="sourcePoint" />
            <mxPoint x="190" y="590" as="targetPoint" />
            <Array as="points" />
          </mxGeometry>
        </mxCell>
        <mxCell id="iVxKkr2CtesMYXWZ3AcV-176" value="implement" style="edgeLabel;html=1;align=center;verticalAlign=middle;resizable=0;points=[];" vertex="1" connectable="0" parent="iVxKkr2CtesMYXWZ3AcV-175">
          <mxGeometry x="0.1733" y="-1" relative="1" as="geometry">
            <mxPoint as="offset" />
          </mxGeometry>
        </mxCell>
        <mxCell id="iVxKkr2CtesMYXWZ3AcV-177" value="" style="endArrow=block;dashed=1;endFill=0;endSize=12;html=1;rounded=0;exitX=0.75;exitY=1;exitDx=0;exitDy=0;entryX=0.889;entryY=0;entryDx=0;entryDy=0;entryPerimeter=0;" edge="1" parent="1" target="iVxKkr2CtesMYXWZ3AcV-6">
          <mxGeometry width="160" relative="1" as="geometry">
            <mxPoint x="310" y="505.5" as="sourcePoint" />
            <mxPoint x="310" y="590" as="targetPoint" />
            <Array as="points" />
          </mxGeometry>
        </mxCell>
        <mxCell id="iVxKkr2CtesMYXWZ3AcV-178" value="implement" style="edgeLabel;html=1;align=center;verticalAlign=middle;resizable=0;points=[];" vertex="1" connectable="0" parent="iVxKkr2CtesMYXWZ3AcV-177">
          <mxGeometry x="0.1733" y="-1" relative="1" as="geometry">
            <mxPoint as="offset" />
          </mxGeometry>
        </mxCell>
      </root>
    </mxGraphModel>
  </diagram>
</mxfile>
